<?xml version="1.0" encoding="UTF-8" standalone="no"?>
<!-- Created with Inkscape (http://www.inkscape.org/) -->

<svg
   width="54.187294mm"
   height="54.251091mm"
   viewBox="0 0 54.187295 54.251093"
   version="1.1"
   id="svg1"
   xmlSpace="preserve"
   xmlns="http://www.w3.org/2000/svg"
   xmlnsSvg="http://www.w3.org/2000/svg"><defs
     id="defs1" /><g
     id="layer1"
     transform="translate(-86.798011,-46.282081)"><path
       d="m 116.48962,100.17309 c 5.64464,-1.18739 10.52726,-4.43703 13.4662,-8.96246 2.69365,-4.14773 3.97613,-8.19199 3.97613,-12.53859 0,-3.38636 -0.6537,-6.11087 -2.1535,-8.97541 -0.96006,-1.83367 -3.71324,-4.6854 -5.34303,-5.53429 -3.28152,-1.7092 -7.48228,-1.92588 -10.79344,-0.55674 -1.30079,0.53786 -3.39477,1.90221 -4.02322,2.62135 l -0.35278,0.40368 0.44097,-0.13832 c 0.80792,-0.25343 3.58432,-0.31311 4.5823,-0.0985 1.49588,0.32167 4.00808,1.61655 5.27835,2.72066 2.82881,2.45876 4.37736,5.73615 4.55576,9.64193 0.19559,4.28232 -1.20214,7.78158 -4.30285,10.77228 -5.01002,4.83229 -13.61201,6.20685 -20.82004,3.32697 -3.742622,-1.49532 -8.017806,-4.5401 -10.367712,-7.38387 -0.482293,-0.58365 -0.90709,-1.03099 -0.943992,-0.99409 -0.09677,0.0968 1.774677,2.93169 2.964787,4.49115 2.214272,2.90148 5.526571,6.05104 8.348527,7.93837 2.72927,1.82533 6.19349,3.16503 9.11737,3.52589 1.6724,0.20641 4.75012,0.0808 6.37017,-0.26 z m 11.18052,-3.77344 c 3.12532,-2.17533 7.22934,-6.0729 8.93906,-8.48938 1.31892,-1.86413 2.74446,-4.54759 3.32221,-6.25377 2.02863,-5.99087 1.10391,-12.62059 -2.5608,-18.35964 -1.9622,-3.07285 -6.18201,-6.33896 -10.31783,-7.98593 -10.26579,-4.08808 -21.67819,0.38182 -23.56977,9.23158 -0.6128,2.86697 -0.20058,6.09923 1.09121,8.55625 0.53848,1.02422 2.34044,3.44284 2.46914,3.31414 0.0276,-0.0276 -0.0707,-0.56561 -0.21833,-1.19563 -0.7273,-3.10313 0.74414,-7.17158 3.58183,-9.90354 1.71329,-1.64947 3.72862,-2.75407 6.23939,-3.4198 1.43275,-0.3799 4.5993,-0.43477 6.1732,-0.10698 1.62581,0.3386 4.79772,1.92863 6.1258,3.07078 3.75209,3.22679 5.86908,8.29298 5.8684,14.04375 -7.4e-4,6.29674 -2.71487,12.14957 -8.10242,17.4723 -1.99305,1.96908 -1.83888,1.97324 0.95891,0.0259 z M 111.663,93.29925 c 6.35121,-0.90287 11.31157,-4.82138 12.84037,-10.14345 0.44517,-1.54973 0.45177,-4.90973 0.0128,-6.52638 -0.61699,-2.27237 -1.93753,-4.47812 -3.43564,-5.73869 l -0.54659,-0.45993 0.29729,0.67396 c 0.40426,0.91646 0.40072,3.6384 -0.007,5.15203 -0.95205,3.53697 -3.42592,6.45835 -6.88259,8.1276 -1.87092,0.90349 -3.16562,1.23878 -5.27101,1.36506 -7.76546,0.46576 -14.096028,-5.22676 -15.595514,-14.02365 -0.216828,-1.27204 -0.264578,-2.35403 -0.195552,-4.43102 0.07861,-2.36536 0.164121,-2.99362 0.614106,-4.51189 1.363544,-4.60068 3.809283,-8.65646 7.27422,-12.06289 0.94808,-0.93208 1.15809,-1.20833 0.7375,-0.97014 -1.515775,0.85842 -4.556891,3.33753 -6.560232,5.34786 -4.261617,4.27651 -6.383677,7.762 -7.6205,12.51669 -0.467961,1.79898 -0.53188,2.33683 -0.526334,4.42889 0.0093,3.51232 0.557681,5.87097 2.161426,9.29671 1.872105,3.99898 4.548768,6.83691 8.60302,9.12135 4.62397,2.60545 9.22323,3.53114 14.09992,2.83789 z m -0.86769,-9.17723 c 2.18292,-0.51461 4.96713,-2.1365 6.06621,-3.53374 0.36647,-0.46589 0.36943,-0.4897 0.0444,-0.35656 -1.53638,0.62934 -4.26566,0.57338 -6.22309,-0.12761 -3.40225,-1.21839 -5.80283,-3.41416 -7.36638,-6.73789 -0.97702,-2.07689 -1.3109,-3.63848 -1.3109,-6.13111 0,-3.6317 1.20058,-6.70123 3.63194,-9.28578 2.52418,-2.6832 5.51413,-4.31391 9.62228,-5.24795 1.75117,-0.39815 6.5751,-0.40681 8.45508,-0.0152 1.50289,0.31307 4.30296,1.31798 5.89557,2.11584 2.54757,1.27628 5.88861,3.83102 7.8468,6.00008 0.4178,0.4628 0.7964,0.8047 0.84133,0.75978 0.11859,-0.1186 -1.77978,-2.76875 -3.23181,-4.51165 -0.687,-0.82462 -2.1332,-2.33961 -3.21378,-3.36665 -7.10778,-6.75563 -14.5835,-8.87974 -22.52726,-6.40078 -1.64251,0.51257 -4.13082,1.70047 -5.65218,2.69831 -4.067893,2.66808 -7.374205,7.57929 -8.855539,13.15405 -0.42705,1.60714 -0.468829,2.05519 -0.468798,5.02757 3.1e-5,2.99085 0.03964,3.40936 0.474644,5.0145 0.910716,3.36052 2.758847,6.41208 5.031645,8.30806 1.426208,1.18975 3.592488,2.2967 5.148688,2.63093 1.53372,0.3294 4.40624,0.33228 5.79115,0.006 z"
       style="fill:#75fbcd;fill-opacity:1"
       id="path1-0" /></g></svg>
