<?xml version="1.0" encoding="UTF-8" standalone="no"?>
<!-- Created with Inkscape (http://www.inkscape.org/) -->

<svg
   width="135.37804mm"
   height="87.169998mm"
   viewBox="0 0 135.37804 87.170001"
   version="1.1"
   id="svg1"
   xmlSpace="preserve"
   xmlns="http://www.w3.org/2000/svg"
   xmlnsSvg="http://www.w3.org/2000/svg">
    <!-- <sodipodi:namedview
      id="namedview1"
      pagecolor="#ffffff"
      bordercolor="#000000"
      borderopacity="0.25"
      inkscape:showpageshadow="2"
      inkscape:pageopacity="0.0"
      inkscape:pagecheckerboard="0"
      inkscape:deskcolor="#d1d1d1"
      inkscape:document-units="mm"
      showgrid="false"
      inkscape:zoom="0.56480079"
      inkscape:cx="222.20224"
      inkscape:cy="385.09153"
      inkscape:window-width="1440"
      inkscape:window-height="900"
      inkscape:window-x="1080"
      inkscape:window-y="1080"
      inkscape:window-maximized="0"
      inkscape:current-layer="layer1" /> -->
      <defs
      id="defs1" />
        <g
        id="layer1"
        transform="translate(-46.202641,-46.282081)">
        <path
          d="m 56.239833,121.3001 1.19679,-0.4788 0.82098,0.44091 c 0.45154,0.24251 1.05911,0.49059 1.35015,0.5513 0.4916,0.10254 0.56438,0.0474 1.02517,-0.77618 0.45784,-0.81836 0.47141,-0.89439 0.17638,-0.98837 -0.51668,-0.16458 -1.64252,-0.65001 -1.64252,-0.70821 0,-0.0295 0.19496,-0.34087 0.43325,-0.69201 0.87009,-1.28215 1.19565,-2.49775 1.10868,-4.13973 -0.10704,-2.02108 -0.60013,-3.2525 -1.83758,-4.58909 -2.41028,-2.60339 -6.1731,-3.12295 -9.34292,-1.29004 -1.03591,0.599 -2.30004,2.01445 -2.85328,3.19483 -0.41411,0.88352 -0.47268,1.22735 -0.47229,2.77249 4.1e-4,1.61585 0.0476,1.86342 0.56179,2.94981 0.6299,1.33073 1.88875,2.77848 2.96375,3.40847 1.83202,1.07363 4.35556,1.20719 6.51165,0.34462 z m -4.82807,-1.87904 c -1.40696,-0.55305 -2.71849,-1.92234 -3.10076,-3.2373 -0.68216,-2.34656 0.42487,-4.88581 2.63782,-6.05049 0.77427,-0.40751 1.10413,-0.47156 2.39713,-0.46549 1.26677,0.006 1.65561,0.0825 2.50717,0.49366 1.96034,0.94647 3.13411,2.94706 2.89812,4.9396 -0.11538,0.97418 -0.89459,2.73168 -1.27602,2.87805 -0.13301,0.051 -0.55388,-0.15435 -0.93527,-0.45642 -0.76517,-0.60602 -1.7621,-1.07338 -2.28963,-1.07338 -0.21763,0 -0.50787,0.28357 -0.79942,0.78106 -0.25175,0.42958 -0.45773,0.81653 -0.45773,0.85989 0,0.0434 0.23583,0.126 0.52407,0.18365 0.28824,0.0576 0.85299,0.31245 1.25499,0.56622 0.98007,0.6187 0.70916,0.85773 -1.03728,0.91519 -1.05126,0.0346 -1.57753,-0.0411 -2.32319,-0.33424 z m 21.83877,2.03844 c 1.24071,-0.41075 2.50594,-1.55745 3.04094,-2.75607 0.39797,-0.89162 0.41845,-1.13944 0.48141,-5.82602 l 0.0658,-4.89479 h -1.06445 -1.06446 l -0.0545,4.82213 -0.0545,4.82214 -0.50006,0.72113 c -0.65898,0.95031 -1.49281,1.33315 -3.09649,1.42172 -1.4824,0.0819 -2.48956,-0.15703 -3.32689,-0.78913 -1.14305,-0.86288 -1.18202,-1.05888 -1.24846,-6.27959 l -0.0601,-4.7184 h -0.96748 -0.96748 l 0.0564,4.98298 0.0564,4.98299 0.49408,1.00614 c 0.71039,1.44662 2.01738,2.42908 3.71169,2.79007 1.05943,0.22572 3.40364,0.077 4.49812,-0.2853 z m 87.245497,0.18745 c 3.23313,-0.84212 5.32535,-3.24664 5.51848,-6.34218 0.1485,-2.38034 -0.57372,-4.23863 -2.26054,-5.81646 -2.27386,-2.12693 -5.75527,-2.55214 -8.648,-1.05626 -1.07198,0.55435 -2.55425,2.13825 -3.09349,3.3056 -0.45045,0.97514 -0.50612,1.28969 -0.50612,2.85955 0,1.66192 0.0367,1.84037 0.63421,3.08681 1.58227,3.30049 4.88491,4.86691 8.35546,3.96294 z m -3.78011,-2.23475 c -1.4062,-0.53983 -2.71609,-1.90524 -3.10231,-3.23379 -1.01903,-3.50535 1.82359,-6.89345 5.49589,-6.55052 3.93109,0.36709 6.06848,3.97308 4.35084,7.34032 -0.56698,1.11152 -1.98685,2.36484 -2.99685,2.64531 -1.06315,0.29524 -2.68039,0.20836 -3.74757,-0.20132 z m -73.736637,-4.63861 v -6.79097 h -0.97014 -0.97014 v 6.79097 6.79097 h 0.97014 0.97014 z m 14.46389,5.82083 v -0.97013 h -4.23334 c -2.32833,0 -4.23333,-0.0374 -4.23333,-0.0832 0,-0.0458 1.74625,-2.2219 3.88055,-4.83586 l 3.88056,-4.75267 v -0.98496 -0.98497 h -5.02708 -5.02709 v 0.96656 0.96656 l 3.61558,0.0477 3.61559,0.0477 -3.79197,4.74071 -3.79198,4.74071 v 1.03603 1.03602 h 5.55625 5.55626 z m 5.291657,-5.82083 v -6.79097 h -0.97014 -0.97014 v 6.79097 6.79097 h 0.97014 0.97014 z m 6.92034,2.1906 0.047,-4.60038 3.84852,4.60038 3.84853,4.60037 h 1.04626 1.04627 v -6.79097 -6.79097 h -1.05567 -1.05567 l -0.0468,5.105 -0.0468,5.105 -4.2848,-5.105 -4.28479,-5.105 h -1.33699 -1.33697 l 0.81517,0.95417 0.81518,0.95418 v 5.83679 5.8368 h 0.96722 0.96721 z m 15.11385,4.053 c 0.7792,-1.05392 1.66428,-1.28808 5.14467,-1.36108 l 3.10178,-0.0651 0.426,0.98375 0.426,0.98374 1.10243,0.003 c 0.60634,0.002 1.09753,-0.0565 1.09154,-0.12928 -0.006,-0.0728 -1.46011,-3.18823 -3.23137,-6.92326 l -3.22048,-6.79098 -1.09015,-0.0525 c -0.59959,-0.0289 -1.09016,-0.0156 -1.09016,0.0295 0,0.0451 0.1519,0.43636 0.33756,0.86948 l 0.33755,0.78748 -2.96809,6.10631 -2.9681,6.1063 h 1.09806 c 1.02366,0 1.12549,-0.0371 1.50276,-0.54737 z m 2.89376,-5.90701 c 0.78144,-1.68884 1.4653,-3.06973 1.51969,-3.06864 0.0744,0.001 2.49924,4.59686 2.7955,5.29781 0.0279,0.0661 -0.92458,0.16216 -2.11667,0.21353 -1.26831,0.0547 -2.46858,0.20427 -2.89338,0.36066 l -0.72595,0.26726 z m 16.87622,0.63355 v -5.82083 h 2.38125 2.38125 v -0.97014 -0.97014 h -5.82083 -5.82083 v 0.97014 0.97014 h 2.46944 2.46944 v 5.82083 5.82083 h 0.97014 0.97014 z m 27.16389,3.2694 c 0,-3.03865 -0.0904,-2.92415 2.41251,-3.05507 l 1.63086,-0.0853 1.02103,2.08537 c 0.56156,1.14696 1.26007,2.33929 1.55224,2.64962 0.56703,0.60226 1.52432,0.95423 2.59968,0.95583 l 0.66146,9.8e-4 v -1.06874 c 0,-0.58781 -0.067,-1.02735 -0.14885,-0.97675 -0.31854,0.19687 -1.43874,-0.28493 -1.87902,-0.80817 -0.45155,-0.53664 -1.49991,-2.45897 -1.49991,-2.75032 0,-0.0803 0.28691,-0.24973 0.63758,-0.37654 0.85384,-0.30875 1.94569,-1.32023 2.17264,-2.01271 0.7227,-2.20516 -0.0256,-4.26772 -1.87691,-5.17348 -0.83854,-0.41027 -1.23851,-0.48113 -3.12592,-0.55384 -1.19039,-0.0459 -3.08903,-0.0256 -4.2192,0.045 l -2.05486,0.12839 v 6.77357 6.77357 h 1.05834 1.05833 z m 0,-6.8665 v -2.22373 l 2.51354,0.008 c 1.38245,0.004 2.86842,0.0761 3.30215,0.15983 1.35706,0.26181 1.8802,1.248 1.39713,2.63375 -0.32049,0.91936 -0.95654,1.12232 -3.94963,1.26033 -1.4552,0.0671 -2.78474,0.18137 -2.95451,0.25393 -0.28464,0.12166 -0.30868,-0.0413 -0.30868,-2.09179 z"
          style="fill:#b555e0;fill-opacity:1"
          id="path1-7" />
          <path
          d="m 61.370454,129.42243 -0.04741,-4.01285 -0.837847,-0.0538 -0.837847,-0.0538 v 4.06661 4.06661 h 0.885256 0.885256 z m 4.842904,1.23472 0.04858,-2.77813 1.693865,2.73403 1.693864,2.73403 1.084259,0.0525 1.084261,0.0525 v -4.06536 -4.06537 h -0.877575 -0.877574 l -0.04847,2.84354 -0.04847,2.84353 -1.763889,-2.84424 -1.763889,-2.84425 -0.970139,0.0448 -0.970139,0.0448 -0.04741,4.01285 -0.04741,4.01284 h 0.880777 0.880777 z m 11.602047,-0.48507 v -3.2632 h 0.980281 0.980281 l -0.05424,-0.74965 -0.05424,-0.74965 h -2.734026 -2.734028 l -0.05424,0.74965 -0.05424,0.74965 h 0.98028 0.980281 v 3.2632 3.26319 h 0.881945 0.881944 z m 8.995833,2.55764 v -0.70556 h -1.499305 -1.499306 v -0.88194 -0.88195 h 1.322917 1.322916 v -0.79375 -0.79375 h -1.322916 -1.322917 v -0.88194 -0.88195 h 1.499306 1.499305 v -0.79375 -0.79375 h -2.38125 -2.38125 v 4.05695 4.05694 h 2.38125 2.38125 z m 4.586111,-0.97014 c 0,-1.26206 0.05692,-1.6757 0.230573,-1.6757 0.126816,0 0.662597,0.75128 1.190625,1.6695 l 0.960052,1.6695 1.024646,0.006 c 0.772719,0.005 0.992648,-0.048 0.894504,-0.21429 -0.07158,-0.12127 -0.589839,-0.90846 -1.151691,-1.74932 l -1.021548,-1.52884 0.656211,-0.3389 c 0.858513,-0.44339 1.182418,-1.31219 0.902965,-2.422 -0.106224,-0.42185 -0.368079,-0.93135 -0.581901,-1.13223 -0.475183,-0.44641 -1.838023,-0.72212 -3.569484,-0.72212 H 89.63346 v 4.05695 4.05694 h 0.881945 0.881944 z m 0,-3.96875 v -0.88195 h 0.717152 c 0.977931,0 1.399515,0.25692 1.399515,0.85288 0,0.69388 -0.302693,0.91101 -1.27,0.91101 h -0.846667 z m 11.291411,4.63021 c 1.34048,-3.57172 2.46692,-6.72019 2.46692,-6.89518 0,-0.27969 -1.49609,-0.26575 -1.71781,0.016 -0.0954,0.12127 -0.60124,1.46997 -1.12403,2.99712 -0.52278,1.52715 -1.00145,2.77731 -1.06369,2.77813 -0.0622,8.2e-4 -0.1616,-0.19148 -0.2208,-0.42732 -0.0592,-0.23585 -0.51302,-1.58522 -1.00851,-2.99861 l -0.900877,-2.56981 h -0.88157 c -0.62958,0 -0.859098,0.063 -0.802964,0.22049 0.04323,0.12127 0.706564,1.94627 1.474084,4.05556 l 1.395477,3.83508 1.00156,0.001 1.00156,0.001 z m 6.52387,-3.05238 v -4.06661 l -0.83785,0.0538 -0.83785,0.0538 -0.0474,4.01285 -0.0474,4.01284 h 0.88526 0.88526 z m 7.93749,3.36106 v -0.70556 h -1.4993 -1.49931 v -0.88194 -0.88195 h 1.32292 1.32292 v -0.79375 -0.79375 h -1.32292 -1.32292 v -0.88194 -0.88195 h 1.49931 1.4993 v -0.79887 -0.79887 l -2.33715,0.0492 -2.33715,0.0492 -0.0474,4.01285 -0.0474,4.01284 h 2.38456 2.38456 z m 7.14026,-1.49931 c 0.37164,-1.21267 0.74275,-2.20486 0.82467,-2.20486 0.0819,0 0.14896,0.0867 0.14896,0.19271 0,0.10599 0.28518,1.09818 0.63373,2.20486 l 0.63372,2.01215 h 1.19117 1.19116 l 1.04842,-4.01284 1.04842,-4.01285 -0.87224,-0.0543 c -0.47973,-0.0298 -0.91944,0.0233 -0.97713,0.11805 -0.0577,0.0948 -0.41777,1.40703 -0.80018,2.91615 -0.38241,1.50911 -0.73756,2.70156 -0.78923,2.64989 -0.0517,-0.0517 -0.45744,-1.33951 -0.90172,-2.86188 l -0.80776,-2.76794 h -0.77543 -0.77542 l -0.89404,3.03429 -0.89405,3.03429 -0.57162,-2.41693 c -0.96462,-4.07861 -0.80321,-3.73985 -1.78197,-3.73985 -0.46434,0 -0.88666,0.0424 -0.93849,0.0942 -0.0518,0.0518 0.0837,0.74637 0.30111,1.54341 0.21745,0.79704 0.70303,2.57985 1.07908,3.96181 l 0.68372,2.51265 1.15971,8.9e-4 1.1597,8.9e-4 z m 14.90836,0.90753 v -1.29733 l 1.24666,-0.10452 c 0.7124,-0.0597 1.48722,-0.24334 1.80799,-0.42846 1.12606,-0.64986 1.54267,-2.53498 0.8216,-3.71768 -0.5737,-0.94097 -1.51857,-1.26015 -3.74396,-1.26469 l -1.89618,-0.004 v 4.05695 4.05694 h 0.88194 0.88195 z m 0,-4.08253 v -1.14653 h 0.9428 c 1.09898,0 1.52664,0.33462 1.52664,1.19452 0,0.73035 -0.54523,1.09854 -1.62675,1.09854 h -0.84269 z m 8.46666,3.70417 c 0,-1.26703 0.0566,-1.6757 0.23192,-1.6757 0.12756,0 0.66334,0.75296 1.19063,1.67324 l 0.9587,1.67323 1.10698,0.002 1.10698,0.002 -1.03134,-1.5434 c -0.56724,-0.84887 -1.09,-1.64277 -1.16169,-1.76422 -0.0836,-0.1417 0.024,-0.2795 0.3005,-0.38463 1.03495,-0.39348 1.47646,-1.88701 0.91044,-3.07981 -0.46168,-0.97292 -1.14679,-1.23815 -3.39263,-1.31341 l -1.98438,-0.0665 v 4.07598 4.07598 h 0.88195 0.88194 z m 0,-3.96875 v -0.88195 h 0.71715 c 0.99523,0 1.39952,0.25478 1.39952,0.88195 0,0.62717 -0.40429,0.88194 -1.39952,0.88194 h -0.71715 z m 11.64167,4.93889 v -0.70556 h -1.49931 -1.4993 v -0.88194 -0.88195 h 1.32291 1.32292 v -0.79375 -0.79375 h -1.32292 -1.32291 v -0.88194 -0.88195 h 1.4993 1.49931 v -0.79375 -0.79375 h -2.38125 -2.38125 v 4.05695 4.05694 h 2.38125 2.38125 z m 4.58611,-0.59178 v -1.29733 l 1.24666,-0.10452 c 1.47629,-0.12377 2.25131,-0.51849 2.67772,-1.36376 0.69689,-1.38148 0.21348,-2.99402 -1.09544,-3.65407 -0.67109,-0.33841 -1.06733,-0.39688 -2.68993,-0.39688 h -1.9029 v 4.05695 4.05694 h 0.88194 0.88195 z m 0,-4.06069 v -1.16837 h 0.9428 c 1.09491,0 1.52664,0.33453 1.52664,1.18292 0,0.72061 -0.36345,0.97918 -1.51,1.07426 l -0.95944,0.0796 z"
          style="fill:#75fbcd;fill-opacity:1"
          id="path1-02" />
          <path
          d="m 116.48962,100.17309 c 5.64464,-1.18739 10.52726,-4.43703 13.4662,-8.96246 2.69365,-4.14773 3.97613,-8.19199 3.97613,-12.53859 0,-3.38636 -0.6537,-6.11087 -2.1535,-8.97541 -0.96006,-1.83367 -3.71324,-4.6854 -5.34303,-5.53429 -3.28152,-1.7092 -7.48228,-1.92588 -10.79344,-0.55674 -1.30079,0.53786 -3.39477,1.90221 -4.02322,2.62135 l -0.35278,0.40368 0.44097,-0.13832 c 0.80792,-0.25343 3.58432,-0.31311 4.5823,-0.0985 1.49588,0.32167 4.00808,1.61655 5.27835,2.72066 2.82881,2.45876 4.37736,5.73615 4.55576,9.64193 0.19559,4.28232 -1.20214,7.78158 -4.30285,10.77228 -5.01002,4.83229 -13.61201,6.20685 -20.82004,3.32697 -3.742622,-1.49532 -8.017806,-4.5401 -10.367712,-7.38387 -0.482293,-0.58365 -0.90709,-1.03099 -0.943992,-0.99409 -0.09677,0.0968 1.774677,2.93169 2.964787,4.49115 2.214272,2.90148 5.526571,6.05104 8.348527,7.93837 2.72927,1.82533 6.19349,3.16503 9.11737,3.52589 1.6724,0.20641 4.75012,0.0808 6.37017,-0.26 z m 11.18052,-3.77344 c 3.12532,-2.17533 7.22934,-6.0729 8.93906,-8.48938 1.31892,-1.86413 2.74446,-4.54759 3.32221,-6.25377 2.02863,-5.99087 1.10391,-12.62059 -2.5608,-18.35964 -1.9622,-3.07285 -6.18201,-6.33896 -10.31783,-7.98593 -10.26579,-4.08808 -21.67819,0.38182 -23.56977,9.23158 -0.6128,2.86697 -0.20058,6.09923 1.09121,8.55625 0.53848,1.02422 2.34044,3.44284 2.46914,3.31414 0.0276,-0.0276 -0.0707,-0.56561 -0.21833,-1.19563 -0.7273,-3.10313 0.74414,-7.17158 3.58183,-9.90354 1.71329,-1.64947 3.72862,-2.75407 6.23939,-3.4198 1.43275,-0.3799 4.5993,-0.43477 6.1732,-0.10698 1.62581,0.3386 4.79772,1.92863 6.1258,3.07078 3.75209,3.22679 5.86908,8.29298 5.8684,14.04375 -7.4e-4,6.29674 -2.71487,12.14957 -8.10242,17.4723 -1.99305,1.96908 -1.83888,1.97324 0.95891,0.0259 z M 111.663,93.29925 c 6.35121,-0.90287 11.31157,-4.82138 12.84037,-10.14345 0.44517,-1.54973 0.45177,-4.90973 0.0128,-6.52638 -0.61699,-2.27237 -1.93753,-4.47812 -3.43564,-5.73869 l -0.54659,-0.45993 0.29729,0.67396 c 0.40426,0.91646 0.40072,3.6384 -0.007,5.15203 -0.95205,3.53697 -3.42592,6.45835 -6.88259,8.1276 -1.87092,0.90349 -3.16562,1.23878 -5.27101,1.36506 -7.76546,0.46576 -14.096028,-5.22676 -15.595514,-14.02365 -0.216828,-1.27204 -0.264578,-2.35403 -0.195552,-4.43102 0.07861,-2.36536 0.164121,-2.99362 0.614106,-4.51189 1.363544,-4.60068 3.809283,-8.65646 7.27422,-12.06289 0.94808,-0.93208 1.15809,-1.20833 0.7375,-0.97014 -1.515775,0.85842 -4.556891,3.33753 -6.560232,5.34786 -4.261617,4.27651 -6.383677,7.762 -7.6205,12.51669 -0.467961,1.79898 -0.53188,2.33683 -0.526334,4.42889 0.0093,3.51232 0.557681,5.87097 2.161426,9.29671 1.872105,3.99898 4.548768,6.83691 8.60302,9.12135 4.62397,2.60545 9.22323,3.53114 14.09992,2.83789 z m -0.86769,-9.17723 c 2.18292,-0.51461 4.96713,-2.1365 6.06621,-3.53374 0.36647,-0.46589 0.36943,-0.4897 0.0444,-0.35656 -1.53638,0.62934 -4.26566,0.57338 -6.22309,-0.12761 -3.40225,-1.21839 -5.80283,-3.41416 -7.36638,-6.73789 -0.97702,-2.07689 -1.3109,-3.63848 -1.3109,-6.13111 0,-3.6317 1.20058,-6.70123 3.63194,-9.28578 2.52418,-2.6832 5.51413,-4.31391 9.62228,-5.24795 1.75117,-0.39815 6.5751,-0.40681 8.45508,-0.0152 1.50289,0.31307 4.30296,1.31798 5.89557,2.11584 2.54757,1.27628 5.88861,3.83102 7.8468,6.00008 0.4178,0.4628 0.7964,0.8047 0.84133,0.75978 0.11859,-0.1186 -1.77978,-2.76875 -3.23181,-4.51165 -0.687,-0.82462 -2.1332,-2.33961 -3.21378,-3.36665 -7.10778,-6.75563 -14.5835,-8.87974 -22.52726,-6.40078 -1.64251,0.51257 -4.13082,1.70047 -5.65218,2.69831 -4.067893,2.66808 -7.374205,7.57929 -8.855539,13.15405 -0.42705,1.60714 -0.468829,2.05519 -0.468798,5.02757 3.1e-5,2.99085 0.03964,3.40936 0.474644,5.0145 0.910716,3.36052 2.758847,6.41208 5.031645,8.30806 1.426208,1.18975 3.592488,2.2967 5.148688,2.63093 1.53372,0.3294 4.40624,0.33228 5.79115,0.006 z"
          style="fill:#75fbcd;fill-opacity:1"
          id="path1-0"
          sodipodiNodetypes="ssssssscsscsssscssssscssscssscsssssscccscscscssssssscscsscccsssssssssscssssssssscc" />
          </g>
       </svg>
